<svg t="1717142980942" class="icon" viewBox="0 0 1024 1024" version="1.1" xmlns="http://www.w3.org/2000/svg" p-id="5945" width="128" height="128"><path d="M162.230857 446.646857a36.498286 36.498286 0 0 0-12.580571 26.989714c0 19.382857 15.725714 35.108571 35.108571 35.108572h70.290286v333.750857c0 19.419429 15.725714 35.108571 35.108571 35.108571h116.516572c19.382857 0 35.108571-15.725714 35.108571-35.108571v-140.507429h140.507429v140.507429c0 19.382857 15.652571 35.108571 35.108571 35.108571h116.443429a35.108571 35.108571 0 0 0 35.108571-35.108571v-333.714286h70.290286a35.108571 35.108571 0 0 0 35.108571-35.145143 34.304 34.304 0 0 0-13.458285-26.989714C740.352 345.088 512 146.395429 512 146.395429s-228.352 198.692571-349.769143 300.251428z" fill="#8E8E93" p-id="5946"></path></svg>
