<svg t="1722873157855" class="icon" viewBox="0 0 1024 1024" version="1.1" xmlns="http://www.w3.org/2000/svg" p-id="1163" width="128" height="128"><path d="M508.6 63.8c16.5 0 33.1 0 49.6 5.5s33.1 11 49.6 16.5 27.6 16.5 38.6 22.1c11 11 22.1 16.5 27.6 27.6 16.5 22.1 27.6 38.6 33.1 66.2 5.5 22.1 11 44.1 16.5 66.2s5.5 49.6 5.5 71.7l11 11c0 5.5 5.5 11 5.5 16.5v22.1c0 11-5.5 22.1-5.5 27.6-5.5 5.5-5.5 11-11 16.5s-11 5.5-16.5 11c-5.5 11-5.5 22.1-11 27.6s-5.5 16.5-11 22.1c-5.5 5.5-5.5 11-11 16.5-11 11-22.1 16.5-27.6 22.1-5.5 5.5-11 16.5-16.5 33.1v27.6c0 11.1 5.5 16.5 5.5 27.6 5.5 11 11 16.5 22.1 27.6s22.1 16.5 38.6 22.1c16.5 5.5 33.1 11 49.6 16.5s33.1 11 49.6 16.5 33.1 16.5 44.1 22.1c11 11 22.1 22.1 27.6 38.6 5.5 11 5.5 22.1 5.5 33.1v44.1c0 16.5 0 27.6-5.5 38.6 0 11-5.5 22.1-11 27.6s-11 11-27.6 11-33.1 11-49.6 11c-22.1 5.5-44.1 5.5-66.2 11-27.6 5.5-49.6 5.5-77.2 5.5s-49.6 5.5-71.7 5.5H447.9c-22.1 0-44.1-5.5-71.7-5.5-22.1 0-49.6-5.5-71.7-5.5s-44.1-5.5-66.2-11-38.6-5.5-49.6-11-22.1-5.5-27.6-11-11-22.1-11-44.1c-5.5-22.1 0-55.2 5.5-93.8 5.5-22.1 11-38.6 27.6-49.6 16.5-11 33.1-22.1 49.6-27.6s38.6-11 60.7-16.5 38.6-11 55.2-22.1c11-5.5 22.1-16.5 27.6-22.1 5.5-5.5 11-16.5 16.5-22.1 5.5-5.5 5.5-16.5 5.5-22.1v-27.6c0-16.5-5.5-27.6-16.5-33.1s-16.5-16.5-27.6-27.6c-5.5-5.5-11-11-11-16.5-5.5-5.5-5.5-16.5-11-22.1-5.5-11-5.5-16.5-11-27.6-5.5 0-5.5-5.5-11-5.5l-11-11c-5.5-5.5-5.5-11-11-22.1-5.5-11-5.5-22.1-5.5-27.6 0-11 0-16.5 5.5-22.1 0-5.5 5.5-11 11-16.5 0-22.1 0-44.1 5.5-66.2 0-16.5 5.5-38.6 11-60.7s16.5-44.1 27.6-60.7c11-16.5 22.1-33.1 38.6-38.6 16.5-11 27.6-16.5 44.1-27.6 16.5-5.5 27.6-11 44.1-11 10.9 0.2 27.5 0.2 38.5 0.2z" fill="#00AA88" p-id="1164"></path></svg>
