<svg xmlns="http://www.w3.org/2000/svg" xmlns:xlink="http://www.w3.org/1999/xlink" fill="none" version="1.1" width="20.30078125" height="19.9171142578125" viewBox="0 0 20.30078125 19.9171142578125"><g><g><g><path d="M19.650390625,8.97060796875C19.517090625,5.65033796875,17.504990625,2.87359796875,14.680790625,1.68018796875C10.438380625,-0.35215203124999994,5.565710625,0.7467268687499999,2.438470625,4.12607796875C0.147587625,6.78466796875,0.07486062500000001,10.71936796875,2.123320625,13.49606796875L1.4081786250000001,18.65966796875L5.517220625,16.19016796875C9.602020625,18.19886796875,14.292890625,17.30086796875,17.468590625,14.24046796875C18.898890625,12.79896796875,19.626190625,10.89656796875,19.650390625,8.97060796875Z" fill="#2F2F30" fill-opacity="1"/><path d="M17.924890625,14.70346796875L17.929990625,14.69836796875Q20.257890625,12.35216796875,20.300290625,8.97878796875L20.300590625,8.96165796875L20.299890625,8.94452796875Q20.193590625,6.29842796875,18.708790625,4.15739796875Q17.260590625,2.06915796875,14.947890625,1.08741796875Q11.607290625,-0.50787203125,8.009610625,0.23725696875000002Q4.473880625,0.9695599687500001,1.961400625,3.68460796875L1.953580625,3.69305796875L1.946060625,3.70177796875Q0.08816962500000003,5.85786796875,0.003918624999999953,8.74784796875Q-0.07540637500000003,11.46886796875,1.443954625,13.66336796875L0.577827225,19.91706796875L5.553690625,16.92656796875Q8.622290625,18.32516796875,11.943490625,17.75686796875Q15.363590625,17.17166796875,17.919590625,14.70856796875L17.924890625,14.70346796875ZM17.012290625,13.77756796875Q14.746290625,15.95836796875,11.724190625,16.47556796875Q8.642750625,17.00276796875,5.804060625,15.60686796875L5.486090625,15.45046796875L2.238530625,17.40226796875L2.803480625,13.32316796875L2.646390625,13.11026796875Q1.233141625,11.19456796875,1.303365625,8.78572796875Q1.3740026250000001,6.36277796875,2.923410625,4.55905796875Q5.150760625,2.15695796875,8.273260624999999,1.51023996875Q11.448690625,0.85256496875,14.399890625,2.26638796875L14.413690625,2.27298796875L14.427790625,2.2789279687499997Q16.402790625,3.11349796875,17.640490625,4.89824796875Q18.904990625,6.72157796875,19.000190625,8.97957796875Q18.958790625,11.81206796875,17.012290625,13.77756796875Z" fill-rule="evenodd" fill="#2F2F30" fill-opacity="1"/></g><g><g><path d="M12.341388387298583,6.19386903024292C12.777738387298584,6.19386903024292,13.214098387298584,6.31202803024292,13.541368387298585,6.54834803024292C14.147428387298584,6.97371803024292,14.426208387298583,7.80083803024292,14.341358387298584,8.54523803024292C14.280758387298585,9.06513803024292,14.050458387298583,9.537778030242919,13.698948387298584,9.91588803024292C12.535318387298584,10.97931803024292,11.311088387298584,12.054568030242919,10.147468387298584,13.11799803024292C8.983848387298584,12.054568030242919,7.759618387298584,10.991138030242919,6.595998387298584,9.91588803024292C6.256608387298584,9.537778030242919,6.014185387298584,9.06513803024292,5.953580387298584,8.54523803024292C5.880854387298584,7.80083803024292,6.159638387298584,6.97371803024292,6.765688387298584,6.54834803024292C7.105078387298584,6.31202803024292,7.529318387298584,6.19386903024292,7.965678387298584,6.19386903024292C8.341428387298585,6.19386903024292,8.717188387298584,6.27658003024292,9.044458387298583,6.45381803024292Q9.577778387298583,6.73739803024292,10.147468387298584,7.78901803024292Q10.717158387298584,6.73739803024292,11.250488387298585,6.44200803024292C11.577758387298584,6.27658003024292,11.953508387298584,6.19386903024292,12.341388387298583,6.19386903024292ZM12.341388387298583,5.35493803024292C11.808058387298583,5.35493803024292,11.298968387298583,5.48491303024292,10.850498387298584,5.72123203024292C10.595948387298584,5.85120703024292,10.365648387298585,6.0638930302429195,10.159588387298584,6.300212030242919C9.953538387298584,6.06389403024292,9.711108387298584,5.85120703024292,9.468688387298585,5.72123203024292C9.020208387298585,5.48491403024292,8.511128387298584,5.35493859366992,7.977798387298584,5.35493859366992C7.335378387298584,5.35493859366992,6.729328387298584,5.54399303024292,6.268728387298584,5.87483903024292C5.432374387298584,6.45381803024292,4.983894387298584,7.54088803024292,5.105105287298584,8.62794803024292C5.177831587298584,9.28963803024292,5.480858387298584,9.95132803024292,5.953580387298584,10.47122803024292C5.965701387298584,10.49486803024292,5.989943387298584,10.50667803024292,6.002064387298584,10.51849803024292C6.583878387298584,11.06202803024292,7.189928387298584,11.59374803024292,7.795978387298584,12.13727803024292C8.389918387298584,12.66899803024292,8.983848387298584,13.20070803024292,9.565658387298583,13.73242803024292C9.735358387298584,13.88603803024292,9.941418387298583,13.95692803024292,10.159588387298584,13.95692803024292C10.377768387298584,13.95692803024292,10.583828387298585,13.88603803024292,10.753528387298584,13.73242803024292C11.335338387298584,13.20070803024292,11.929268387298585,12.66899803024292,12.523198387298585,12.13727803024292C13.117138387298583,11.60555803024292,13.723188387298585,11.06202803024292,14.304998387298584,10.53030803024292C14.329238387298584,10.51849803024292,14.341358387298584,10.49486803024292,14.353478387298583,10.48304803024292C14.826208387298584,9.96314803024292,15.129238387298583,9.31326803024292,15.201938387298584,8.63976803024292C15.323138387298584,7.5526980302429205,14.874688387298583,6.4656380302429195,14.050458387298583,5.87483903024292C13.577738387298584,5.54399303024292,12.971678387298585,5.35493803024292,12.341388387298583,5.35493803024292Z" fill="#E56A17" fill-opacity="1"/></g></g></g></g></svg>