<svg xmlns="http://www.w3.org/2000/svg" xmlns:xlink="http://www.w3.org/1999/xlink" fill="none" version="1.1" width="35" height="36.2325439453125" viewBox="0 0 35 36.2325439453125"><g><g><g><path d="M27.275548241577148,31.834047881174087L27.53835824157715,34.14355788117409L27.49264824157715,34.14355788117409L26.018608241577148,30.371747881174088L24.38458824157715,30.371747881174088L24.38458824157715,35.83796788117409L25.88148824157715,35.83796788117409L25.88148824157715,34.38726788117409L25.630098241577148,32.07776788117409L25.675808241577148,32.07776788117409L27.161278241577147,35.83796788117409L28.78386824157715,35.83796788117409L28.78386824157715,30.371747881174088L27.275548241577148,30.371747881174088L27.275548241577148,31.834047881174087Z" fill="#2F2F30" fill-opacity="1"/></g><g><path d="M19.516810281982423,30.371747881174088L17.722820281982422,35.83796788117409L19.333990281982423,35.83796788117409L19.63108028198242,34.549747881174085L21.26510028198242,34.549747881174085L21.56219028198242,35.83796788117409L23.230490281982423,35.83796788117409L21.436500281982422,30.371750094754088L19.516810281982423,30.371747881174088ZM19.905320281982423,33.319557881174084Q19.905320281982423,33.319557881174084,20.40810028198242,31.567117881174088L20.442380281982423,31.567117881174088Q20.968000281982423,33.319557881174084,20.968000281982423,33.319557881174084L19.905320281982423,33.319557881174084Z" fill="#2F2F30" fill-opacity="1"/></g><g><path d="M0,31.71798788117409L1.35978,31.71798788117409L1.35978,34.50332788117409L0,34.50332788117409L0,35.83796788117409L4.28501,35.83796788117409L4.28501,34.50332788117409L2.93666,34.50332788117409L2.93666,31.71798788117409L4.28501,31.71798788117409L4.28501,30.371747881174088L0,30.371747881174088L0,31.71798788117409Z" fill="#2F2F30" fill-opacity="1"/></g><g><path d="M9.347047078552245,32.68125811828613L8.672867078552246,32.42592811828613C8.078677078552246,32.205428118286136,7.724457078552247,32.06615811828613,7.724457078552247,31.787628118286133C7.724457078552247,31.509098118286133,7.964417078552247,31.381428118286134,8.307217078552245,31.381428118286134C8.878547078552247,31.381428118286134,9.209927078552246,31.53230811828613,9.644137078552246,31.822438118286133L10.432577078552246,30.812758118286133C9.861247078552246,30.26729811828613,9.107087078552246,30.000368118286133,8.398627078552245,30.000368118286133C7.038847078552246,30.000368118286133,6.1247140785522465,30.84757311828613,6.1247140785522465,31.88046811828613C6.1247140785522465,32.750888118286134,6.650343078552246,33.307948118286134,7.3816470785522466,33.563278118286135L8.158667078552245,33.86501811828613C8.524327078552247,34.01589811828613,8.969967078552246,34.15515811828613,8.992817078552246,34.49171811828613C9.004247078552247,34.689018118286135,8.809987078552247,34.85149811828613,8.330067078552247,34.85149811828613C7.793017078552246,34.85149811828613,7.255957078552246,34.607778118286134,6.810317078552246,34.25960811828613L5.907607078552246,35.36213811828613C6.581783078552246,35.95402811828613,7.438787078552246,36.232558118286136,8.215797078552246,36.232558118286136C9.758407078552246,36.232558118286136,10.592557078552247,35.315718118286135,10.592557078552247,34.294428118286135C10.603977078552246,33.43561811828613,10.158337078552247,32.98299811828613,9.347047078552245,32.68125811828613Z" fill="#2F2F30" fill-opacity="1"/></g><g><path d="M13.883442423706054,30.371747881174088L12.306562423706055,30.371747881174088L12.306562423706055,35.83796788117409L16.420172423706056,35.83796788117409L16.420172423706056,34.50332788117409L13.883442423706054,34.50332788117409L13.883442423706054,30.371747881174088Z" fill="#2F2F30" fill-opacity="1"/></g><g><path d="M32.09761977172852,30.371747881174088L30.383609771728516,30.371747881174088L30.383609771728516,35.83796788117409L32.189029771728514,35.83796788117409C33.80018977172852,35.83796788117409,34.99999977172852,35.21126788117409,34.99999977172852,33.075847881174084C34.99999977172852,30.940419881174087,33.80018977172852,30.371747881174088,32.09761977172852,30.371747881174088ZM32.017629771728515,34.56135788117409L31.960499771728514,34.56135788117409L31.960499771728514,31.659967881174087L32.017629771728515,31.659967881174087C32.78321977172852,31.659967881174087,33.38882977172852,31.671567881174088,33.38882977172852,33.087447881174086C33.38882977172852,34.49171788117409,32.771789771728514,34.56135788117409,32.017629771728515,34.56135788117409Z" fill="#2F2F30" fill-opacity="1"/></g></g><g><g><path d="M13.803463328602314,0L11.221023328602314,0L11.221023328602314,2.63446C12.649363328602314,2.63446,13.803463328602314,1.45069,13.803463328602314,0Z" fill="#E56A17" fill-opacity="1"/></g><g><path d="M18.751218541259767,15.574666716003417C20.282398541259766,15.574666716003417,21.527898541259766,16.839666716003418,21.539298541259768,18.38316671600342L21.539298541259768,18.41806671600342C21.527898541259766,19.06796671600342,21.002288541259766,19.601766716003418,20.350958541259764,19.601766716003418L19.528238541259768,19.601766716003418L17.094348541259766,12.812566716003419L14.843288541259765,13.648166716003418L16.980088541259764,19.601766716003418L16.820108541259764,19.601766716003418C15.277508541259767,19.601766716003418,14.031998541259766,18.336766716003417,14.031998541259766,16.77006671600342L14.031998541259766,6.290216716003418C14.031998541259766,5.628696716003418,14.569048541259765,5.083236716003418,15.220368541259766,5.083236716003418L18.751218541259767,5.083236716003418C20.293828541259764,5.083236716003418,21.539298541259768,6.348236716003418,21.539298541259768,7.914986716003418C21.539298541259768,8.576506716003419,21.002288541259766,9.121966716003417,20.350958541259764,9.121966716003417C18.808358541259764,9.121966716003417,17.562848541259765,7.856966716003418,17.562848541259765,6.290216716003418L17.334308541259766,6.371446716003418L16.191638541259763,6.789246716003418L15.654588541259766,6.998146716003418L14.843288541259765,7.299896716003418C15.288928541259764,9.853116716003418,17.437148541259766,11.826066716003417,20.042438541259763,11.965326716003418C20.145278541259763,11.965326716003418,20.248118541259764,11.976936716003419,20.339538541259763,11.976936716003419C22.544898541259766,11.976936716003419,24.338898541259766,10.154866716003419,24.338898541259766,7.914986716003418C24.338898541259766,4.781486716003418,21.824998541259767,2.228266716003418,18.739798541259766,2.228266716003418L15.208948541259765,2.228266716003418C13.003588541259766,2.228266716003418,11.209598541259766,4.050336716003418,11.209598541259766,6.290206716003418L11.209598541259766,16.77006671600342C11.209598541259766,19.903566716003418,13.723478541259766,22.45676671600342,16.808678541259766,22.45676671600342L20.339538541259763,22.45676671600342C20.442378541259764,22.45676671600342,20.556648541259765,22.45676671600342,20.659488541259766,22.445166716003417C19.665358541259764,24.638566716003417,17.882798541259767,26.402666716003417,15.688868541259765,27.35426671600342L15.677438541259765,27.35426671600342C15.380348541259766,27.481966716003416,15.071828541259766,27.59796671600342,14.763298541259765,27.690866716003416L15.723148541259766,30.36016671600342L15.723148541259766,30.371766716003417C16.488738541259764,30.128066716003417,17.220048541259764,29.803066716003418,17.905648541259765,29.42006671600342C21.722198541259765,27.284666716003418,24.327498541259764,23.15306671600342,24.327498541259764,18.41806671600342L24.327498541259764,18.38316671600342C24.315998541259766,15.609466716003418,22.339198541259766,13.288366716003418,19.722488541259764,12.812566716003419L19.231148541259763,14.193566716003417L18.751218541259767,15.574666716003417Z" fill="#2F2F30" fill-opacity="1"/></g></g></g></svg>