<svg xmlns="http://www.w3.org/2000/svg" xmlns:xlink="http://www.w3.org/1999/xlink" fill="none" version="1.1" width="40.7998046875" height="42.050048828125" viewBox="0 0 40.7998046875 42.050048828125"><g><g><g><path d="M33.69575346374512,34.61805436611176L31.17195346374512,34.61805436611176L31.17195346374512,36.554584366111754L30.40760346374512,34.61805436611176L27.86800346374512,34.61805436611176L27.86800346374512,41.60351436611175L30.378743463745117,41.60351436611175L30.378743463745117,39.619614366111755L31.170293463745118,41.60351436611175L33.69575346374512,41.60351436611175L33.69575346374512,34.61805436611176ZM31.971953463745116,35.418054366111754L31.971953463745116,36.649854366111754L32.32092346374512,39.68615436611176L31.547923463745118,39.68615436611176L29.86330346374512,35.418054366111754L28.668003463745116,35.418054366111754L28.668003463745116,40.803514366111756L29.578743463745116,40.803514366111756L29.578743463745116,39.58385436611176L29.245061463745117,36.548544366111756L30.014743463745116,36.548544366111756L31.712433463745118,40.803514366111756L32.895753463745116,40.803514366111756L32.895753463745116,35.418054366111754L31.971953463745116,35.418054366111754Z" fill-rule="evenodd" fill="#727171" fill-opacity="1"/></g><g><path d="M27.50302436706543,41.60351436611175L25.18757436706543,34.618057366111756L24.89876436706543,34.61805636611176L22.41601436706543,34.61805436611176L20.10056636706543,41.60351436611175L22.81342436706543,41.60351436611175L23.15296436706543,40.14579436611176L24.38533436706543,40.14579436611176L24.72487436706543,41.60351436611175L27.50302436706543,41.60351436611175ZM24.60994436706543,35.418056366111756L26.39505436706543,40.803514366111756L25.35994436706543,40.803514366111756L25.020414367065428,39.345794366111754L22.51788436706543,39.345794366111754L22.178344367065428,40.803514366111756L21.20854236706543,40.803514366111756L22.99364436706543,35.418054366111754L24.60994436706543,35.418056366111756ZM22.61648436706543,38.75373436611176L24.36333436706543,38.75373436611176L24.90245436706543,38.75373436611176L24.05939436706543,35.97071136611176L23.422894367065428,35.97071136611176L22.61648436706543,38.75373436611176ZM23.82421436706543,37.95373436611175L23.75111436706543,37.71243436611176L23.68119436706543,37.95373436611175L23.82421436706543,37.95373436611175Z" fill-rule="evenodd" fill="#727171" fill-opacity="1"/></g><g><path d="M5.69706234375,34.61805436611176L-0.0000976562500000222,34.61805436611176L-0.0000976562500000222,36.94143436611176L1.55393234375,36.94143436611176L1.55393234375,39.29326436611176L-0.0000976562500000222,39.29326436611176L-0.0000976562500000222,41.60351436611175L5.69706234375,41.60351436611175L5.69706234375,39.29326436611176L4.15609234375,39.29326436611176L4.15609234375,36.94143436611176L5.69706234375,36.94143436611176L5.69706234375,34.61805436611176ZM0.79990234375,35.418054366111754L0.79990234375,36.14143436611175L2.35393234375,36.14143436611175L2.35393234375,40.093264366111754L0.79990234375,40.093264366111754L0.79990234375,40.803514366111756L4.89706234375,40.803514366111756L4.89706234375,40.093264366111754L3.35609234375,40.093264366111754L3.35609234375,36.14143436611175L4.89706234375,36.14143436611175L4.89706234375,35.418054366111754L0.79990234375,35.418054366111754Z" fill-rule="evenodd" fill="#727171" fill-opacity="1"/></g><g><path d="M12.905683495025634,39.459558837890626Q12.904663495025634,40.554848837890624,12.072963495025634,41.287058837890626Q11.206323495025636,42.050018837890626,9.789393495025635,42.050018837890626Q8.134970495025634,42.050018837890626,6.889032495025635,40.96695883789062L6.5944924950256345,40.71092883789063L8.121608495025635,38.86417883789063L8.427863495025635,39.10108883789063Q9.185593495025635,39.687238837890625,9.919983495025635,39.687238837890625Q10.127813495025634,39.687238837890625,10.238183495025634,39.65274883789063Q10.127543495025634,39.56150883789063,9.712543495025635,39.397168837890625Q9.619283495025634,39.36023883789063,9.580533495025634,39.344318837890626L8.698713495025634,39.00525883789062Q7.935159495025635,38.739578837890626,7.4926344950256345,38.189008837890626Q6.999576495025635,37.575578837890625,6.999575495025635,36.72528883789062Q6.999576495025635,35.644858837890624,7.857659495025635,34.91802783789063Q8.707943495025635,34.197808837890626,9.998333495025635,34.197808837890626Q11.509493495025634,34.197808837890626,12.597633495025635,35.22640983789063L12.863403495025635,35.47763683789063L11.507973495025634,37.196278837890624L11.201063495025636,36.993228837890626Q10.547143495025635,36.56058883789063,9.893863495025634,36.56058883789063Q9.627853495025635,36.56058883789063,9.627853495025635,36.620238837890625Q9.627853495025635,36.665078837890626,10.452193495025634,36.96798883789062L11.220463495025633,37.25608883789062Q12.925383495025635,37.883938837890625,12.905683495025634,39.459558837890626ZM11.838283495025635,38.56265883789062Q12.113193495025634,38.89515883789063,12.105713495025634,39.451498837890625L12.105683495025634,39.45687883789063Q12.105683495025634,40.19239883789062,11.544333495025635,40.68659883789063Q10.904353495025635,41.25001883789062,9.789393495025635,41.25001883789062Q8.633033495025634,41.25001883789062,7.720628495025634,40.604458837890625L8.254963495025635,39.95828883789063Q9.075603495025636,40.48723883789062,9.919983495025635,40.48723883789062Q10.421993495025635,40.48723883789062,10.715923495025635,40.309888837890625Q11.101323495025635,40.077348837890625,11.076473495025635,39.652768837890626Q11.047473495025635,39.22998883789062,10.625933495025635,38.94929883789062Q10.437423495025634,38.82377883789063,10.007073495025635,38.653368837890625Q9.917823495025635,38.618018837890624,9.867653495025635,38.59761883789062L8.973233495025635,38.25370883789063L8.966763495025635,38.25146883789063Q7.799576495025635,37.847988837890625,7.799575495025635,36.72528883789062Q7.799576495025635,36.01564883789062,8.374723495025634,35.52847083789062Q9.001223495025634,34.997808837890624,9.998333495025635,34.997808837890624Q11.003233495025635,34.997808837890624,11.769653495025635,35.57259383789062L11.325103495025635,36.136268837890626Q10.622543495025635,35.76058883789062,9.893863495025634,35.76058883789062Q9.470263495025634,35.76058883789062,9.197723495025635,35.93568883789062Q8.827853495025634,36.17332883789062,8.827853495025634,36.620238837890625Q8.827853495025634,37.064428837890624,9.311623495025636,37.350358837890624Q9.538963495025634,37.484718837890625,10.171313495025634,37.717058837890626L10.944013495025635,38.00679883789063Q11.568983495025634,38.23694883789062,11.838283495025635,38.56265883789062Z" fill-rule="evenodd" fill="#727171" fill-opacity="1"/></g><g><path d="M16.666695249938964,39.29326436611176L19.565815249938964,39.29326436611176L19.565815249938964,41.60351436611175L14.064545249938964,41.60351436611175L14.064545249938964,34.61805436611176L16.666695249938964,34.61805436611176L16.666695249938964,39.29326436611176ZM15.866695249938966,35.418054366111754L15.866695249938966,40.093264366111754L18.765815249938964,40.093264366111754L18.765815249938964,40.803514366111756L14.864545249938965,40.803514366111756L14.864545249938965,35.418054366111754L15.866695249938966,35.418054366111754Z" fill-rule="evenodd" fill="#727171" fill-opacity="1"/></g><g><path d="M39.74079725219727,40.853674366111754Q40.799907252197265,39.96763436611175,40.799907252197265,38.077954366111754Q40.79989725219727,34.61805436611176,37.08289725219726,34.61805436611176L34.72402725219727,34.61805436611176L34.72402725219727,41.60351436611175L37.18736725219726,41.60351436611175Q38.844497252197264,41.60351436611175,39.74079725219727,40.853674366111754ZM39.223127252197266,35.95573536611175Q39.999897252197265,36.569334366111754,39.999897252197265,38.077954366111754Q39.999897252197265,39.593874366111756,39.227467252197265,40.24008436611176Q38.55398725219727,40.803514366111756,37.18736725219726,40.803514366111756L35.524027252197264,40.803514366111756L35.524027252197264,35.418054366111754L37.08289725219726,35.418054366111754Q38.54246725219726,35.418054366111754,39.223127252197266,35.95573536611175ZM38.34200725219726,39.838034366111756Q38.95856725219726,39.364104366111754,38.95856725219726,38.09108436611176Q38.95856725219726,36.80612436611175,38.33702725219727,36.35812436611175Q37.94530725219727,36.07577436611176,36.991477252197264,36.07577436611176L36.52618725219727,36.07577436611176L36.52618725219727,40.158924366111755L36.991477252197264,40.158924366111755Q37.924547252197264,40.158924366111755,38.34200725219726,39.838034366111756ZM37.869237252197266,37.007104366111754Q38.158567252197265,37.21565436611176,38.158567252197265,38.09108436611176Q38.158567252197265,38.97000436611175,37.85446725219727,39.203764366111756Q37.70921725219726,39.31541436611175,37.326187252197265,39.34672436611176L37.326187252197265,36.885124366111754Q37.73566725219727,36.910824366111754,37.869237252197266,37.007104366111754Z" fill-rule="evenodd" fill="#727171" fill-opacity="1"/></g></g><g><g><path d="M12.573929550498724,0.000024414062499977796L12.573929550498724,4.2811244140625L13.223929550498724,4.2811244140625Q14.718449550498724,4.2811244140625,15.774059550498723,3.2130844140625Q16.825279550498724,2.1494744140625,16.825289550498724,0.6500244140625L16.825289550498724,0.000024414062499977796L12.573929550498724,0.000024414062499977796ZM13.873929550498724,2.8925144140625Q14.418459550498724,2.7353144140625,14.849449550498724,2.2992444140624997Q15.285349550498724,1.8582144140625,15.440099550498724,1.3000244140625L13.873929550498724,1.3000244140625L13.873929550498724,2.8925144140625Z" fill-rule="evenodd" fill="#727171" fill-opacity="1"/></g><g><path d="M22.395722650146485,14.740684231948853L21.766642650146487,16.491384231948853L21.765032650146484,16.495984231948853L21.445312650146484,17.40688423194885L20.325122650146483,14.312984231948853L17.086462650146483,15.503384231948852L17.086462650146483,10.349004231948854Q17.676232650146485,11.896414231948853,18.975662650146482,13.058874231948852Q20.483272650146485,14.407584231948853,22.395722650146485,14.740684231948853ZM24.235972650146486,14.822884231948853Q26.019372650146487,14.637984231948852,27.336472650146483,13.313484231948852Q28.865772650146482,11.775574231948852,28.865772650146482,9.606464231948852Q28.865772650146482,6.678934231948853,26.799472650146484,4.600964231948852Q24.731572650146482,2.5214832319488525,21.816812650146485,2.5214842319488526L17.781552650146484,2.5214842319488526Q15.620942650146485,2.5214842319488526,14.090153650146485,4.060890231948853Q12.560872650146484,5.598784231948852,12.560872650146484,7.767894231948852L12.560872650146484,19.626684231948854Q12.560872650146484,22.554184231948852,14.627212650146484,24.632084231948852Q16.695052650146483,26.71158423194885,19.609822650146484,26.71158423194885L22.934492650146485,26.71158423194885Q22.236002650146485,27.904084231948854,21.230012650146485,28.88838423194885Q19.888892650146484,30.200484231948852,18.194272650146484,30.953584231948852L18.184452650146483,30.953584231948852L18.062502650146484,31.005484231948852Q17.550722650146483,31.223184231948853,17.086632650146484,31.361484231948854L16.425972650146484,31.558384231948853L17.719212650146485,35.11928423194885L17.719212650146485,35.90448423194885L18.564612650146486,35.637984231948856Q19.899192650146485,35.21728423194885,21.178102650146485,34.50998423194885Q24.662272650146484,32.57978423194885,26.725572650146482,29.154884231948852Q28.852672650146484,25.623884231948853,28.852672650146484,21.491484231948853L28.852672650146484,21.452084231948852Q28.841972650146484,18.873584231948854,27.184972650146484,16.906384231948852Q25.949572650146486,15.439684231948853,24.235972650146486,14.822884231948853ZM18.766452650146483,34.19458423194885Q19.670592650146485,33.858184231948854,20.548902650146484,33.37238423194886Q23.728172650146483,31.61108423194885,25.611972650146484,28.484084231948852Q27.552672650146484,25.262584231948853,27.552672650146484,21.491484231948853L27.552672650146484,21.452084231948852Q27.543972650146486,19.35048423194885,26.19067265014648,17.743884231948854Q25.030872650146485,16.36698423194885,23.357472650146484,15.908484231948853L22.990912650146484,16.92868423194885L22.713242650146483,17.71978423194885Q23.737772650146482,17.952184231948852,24.533972650146485,18.748384231948855Q25.654472650146484,19.86878423194885,25.66627265014648,21.447184231948853L25.66627265014648,21.491484231948853Q25.651672650146484,22.320584231948853,25.069272650146484,22.898384231948853Q24.482172650146484,23.480984231948852,23.658172650146483,23.480984231948852L22.261942650146484,23.480984231948852L19.547492650146484,15.983884231948853L18.195282650146485,16.480784231948853L20.732712650146485,23.480984231948852L19.622882650146487,23.480984231948852Q18.030342650146483,23.480984231948852,16.907652650146485,22.35198423194885Q15.786462650146484,21.224484231948853,15.786462650146484,19.626684231948854L15.786462650146484,7.767894231948852Q15.786462650146484,6.938304231948853,16.375492650146484,6.3459642319488525Q16.966032650146484,5.752104231948852,17.794612650146483,5.752104231948852L21.829872650146484,5.752104231948852Q23.422372650146485,5.752104231948852,24.545072650146484,6.881114231948853Q25.66627265014648,8.008614231948853,25.66627265014648,9.606464231948852Q25.66627265014648,10.436054231948852,25.077272650146483,11.028394231948852Q24.486772650146484,11.622254231948853,23.658172650146483,11.622254231948853Q22.065602650146484,11.622254231948853,20.942912650146482,10.493244231948854Q20.147802650146485,9.693654231948852,19.916562650146485,8.657524231948852L19.125902650146486,8.943784231948854L18.524462650146482,9.175554231948851L18.120492650146485,9.324354231948853Q18.554232650146485,10.937594231948854,19.842422650146485,12.089984231948852Q21.340502650146483,13.430184231948852,23.325172650146484,13.539884231948852Q23.401072650146485,13.540684231948852,23.522572650146486,13.547684231948853Q23.613072650146485,13.552884231948852,23.645072650146485,13.552884231948852Q25.265072650146486,13.552884231948852,26.414672650146485,12.396814231948852Q27.565772650146485,11.239234231948853,27.565772650146485,9.606464231948852Q27.565772650146485,7.215274231948853,25.877572650146483,5.517624231948853Q24.190972650146485,3.8214842319488525,21.816812650146485,3.8214832319488528L17.781552650146484,3.8214842319488525Q16.161562650146486,3.8214842319488525,15.011972650146484,4.977544231948853Q13.860872650146485,6.135124231948852,13.860872650146485,7.767894231948852L13.860872650146485,19.626684231948854Q13.860872650146485,22.017784231948852,15.549022650146485,23.715484231948853Q17.235672650146483,25.411584231948854,19.609822650146484,25.411584231948854L23.645072650146485,25.411584231948854Q23.856972650146485,25.411584231948854,23.938572650146483,25.402484231948854L25.079672650146485,25.274984231948853L24.601772650146486,26.318984231948853Q23.698872650146484,28.291584231948853,22.139162650146485,29.817584231948853Q20.577112650146486,31.34588423194885,18.586552650146484,32.20078423194885L18.463712650146483,32.25358423194885L18.447662650146484,32.25358423194885Q18.276802650146486,32.32408423194885,18.109952650146482,32.386884231948855L18.766452650146483,34.19458423194885ZM17.086462650146483,8.319864231948852L18.057242650146485,7.962414231948853L18.683372650146485,7.721414231948852L19.994742650146485,7.246694231948853L20.547592650146484,7.052104231948853L17.794612650146483,7.052104231948853Q17.506642650146485,7.052104231948853,17.297312650146484,7.262624231948853Q17.086462650146483,7.474644231948853,17.086462650146483,7.767894231948852L17.086462650146483,8.319864231948852ZM21.121722650146484,7.052104231948853L21.121732650146484,7.767894231948852Q21.121722650146484,8.829404231948853,21.864732650146486,9.576584231948853Q22.606222650146485,10.322254231948852,23.658172650146483,10.322254231948852Q23.946072650146483,10.322254231948852,24.155472650146486,10.111734231948851Q24.366272650146485,9.899704231948853,24.366272650146485,9.606464231948852Q24.366272650146485,8.544954231948854,23.623272650146482,7.7977742319488526Q22.881792650146487,7.052104231948853,21.829872650146484,7.052104231948853L21.121722650146484,7.052104231948853ZM21.996352650146484,18.928884231948853L23.173842650146483,22.18098423194885L23.658172650146483,22.18098423194885Q23.946672650146482,22.18098423194885,24.153672650146483,21.97558423194885Q24.361272650146482,21.76958423194885,24.366272650146485,21.491484231948853L24.366272650146485,21.45688423194885Q24.358472650146485,20.41128423194885,23.614772650146485,19.667684231948854Q22.931212650146485,18.984084231948852,21.996352650146484,18.928884231948853ZM17.086462650146483,19.626684231948854L17.086462650146483,17.236584231948854L18.836052650146485,22.063284231948852Q18.276382650146484,21.884784231948853,17.829462650146485,21.435284231948852Q17.086462650146483,20.688184231948853,17.086462650146483,19.626684231948854Z" fill-rule="evenodd" fill="#727171" fill-opacity="1"/></g></g></g></svg>