<svg t="1722610551116" class="icon" viewBox="0 0 1024 1024" version="1.1" xmlns="http://www.w3.org/2000/svg" p-id="5215" width="128" height="128"><path d="M21.33333333 520.53333333c0 275.69493333 223.50506667 499.2 499.2 499.2S1019.73333333 796.22826667 1019.73333333 520.53333333 796.22826667 21.33333333 520.53333333 21.33333333 21.33333333 244.8384 21.33333333 520.53333333z m25.6 0c0-261.56373333 212.03626667-473.6 473.6-473.6S994.13333333 258.9696 994.13333333 520.53333333 782.09706667 994.13333333 520.53333333 994.13333333 46.93333333 782.09706667 46.93333333 520.53333333z" fill="#ff5150" p-id="5216"></path><path d="M261.81973333 458.06933333c1.09226667 14.16533333 2.59413333 28.3648 3.1232 42.61546667 0.98986667 26.40213333-9.18186667 47.44533333-30.1056 62.83946667a147.95093333 147.95093333 0 0 1-53.00906666 25.1904c-22.51093333 5.39306667-41.30133333-13.6192-35.4304-36.69333334 3.328-13.12426667 7.61173333-26.48746667 14.2848-38.07573333 16.5888-28.65493333 26.6752-59.6992 34.98666666-91.61386667a100.52266667 100.52266667 0 0 1 6.144-17.408c4.5056-9.6256 14.76266667-14.62613333 24.576-11.60533333 7.08266667 2.21866667 13.99466667 5.34186667 20.61653334 8.92586667 10.47893333 5.632 20.6848 12.032 31.0272 18.14186666 6.31466667-6.94613333 12.3904-14.30186667 18.92693333-21.0432 23.05706667-23.53493333 51.5072-38.46826667 80.45226667-52.24106666 45.39733333-21.57226667 92.09173333-39.86773333 141.2096-50.31253334a528.64 528.64 0 0 1 69.20533333-9.7792c27.68213333-2.2528 55.4496-3.072 83.21706667-2.5088 35.95946667 0.83626667 71.40693333 5.7856 104.22613333 22.7328 17.73226667 9.18186667 32.58026667 21.82826667 35.77173333 42.61546667 2.21866667 14.55786667 1.3824 29.96906667-0.22186666 44.7488-2.67946667 25.07093333-12.6464 48.2304-22.3744 71.04853333-2.59413333 6.02453333-9.33546667 10.8544-15.2064 14.3872-14.848 8.89173333-31.40266667 13.53386667-48.2304 16.81066667-47.36 9.3184-93.83253333 5.1712-139.1616-11.55413333-26.89706667-9.94986667-48.5888-28.02346667-68.36906667-48.72533334-2.03093333-2.11626667-3.70346667-5.00053333-6.22933333-6.2464-2.64533333-1.34826667-6.912-2.42346667-8.8064-1.10933333-1.97973333 1.41653333-3.1232 6.02453333-2.59413334 8.77226667 0.69973333 3.2768 3.1232 6.5536 5.4784 9.14773333 28.672 31.88053333 63.57333333 53.23093333 104.704 63.01013333 49.152 11.6736 98.03093333 11.02506667 146.26133334-5.39306666 2.73066667-0.93866667 5.46133333-2.03093333 8.1408-3.2768 2.57706667-1.1776 5.1712-2.67946667 8.72106666-3.2768-5.30773333 7.97013333-10.3424 16.11093333-15.88906666 23.84213333-37.4272 51.59253333-85.38453333 87.8592-145.92 106.00106667-38.63893333 11.5712-77.27786667 9.9328-115.6608 0.3072-64.2048-16.11093333-123.136-43.776-173.94346667-88.0128-15.80373333-13.7728-30.72-28.63786667-41.13066667-47.3088a91.648 91.648 0 0 1-9.3696-22.90346667c-1.57013333-6.3488-4.096-10.41066667-9.4208-12.032z m467.23413334-157.61066666c-7.45813333 0.68266667-14.98453333 1.00693333-22.35733334 2.16746666-11.40053333 1.87733333-22.28906667 5.71733333-31.31733333 13.3632-8.02133333 6.72426667-7.09973333 16.4352 1.80906667 21.6064 3.584 2.03093333 7.61173333 3.49866667 11.55413333 4.608 18.03946667 5.08586667 36.42026667 3.75466667 54.6816 1.6384 9.35253333-1.10933333 18.60266667-4.16426667 27.46026667-7.68 6.48533333-2.2528 10.68373333-8.53333333 10.32533333-15.39413333-0.27306667-7.2704-6.07573333-9.89866667-11.264-12.42453333-12.9024-6.10986667-26.76053333-7.8336-40.89173333-7.8848z m-214.2208 85.6064c10.82026667 0 19.23413333-7.85066667 19.23413333-17.68106667-0.08533333-9.7792-8.89173333-17.90293333-19.31946667-17.8176-10.87146667 0.06826667-19.01226667 7.7312-19.06346666 17.8176 0 9.84746667 8.3456 17.59573333 19.1488 17.68106667z m83.712 425.86453333c-5.00053333 0-9.79626667 0.34133333-14.50666667-0.13653333-1.29706667-0.17066667-3.05493333-2.42346667-3.41333333-4.096-3.49866667-14.06293333-6.48533333-28.33066667-10.2912-42.35946667a54.64746667 54.64746667 0 0 0-7.2704-15.5648c-4.72746667-7.2704-12.6464-8.192-17.95413334-1.3824-5.1712 6.5536-9.728 13.99466667-12.93653333 21.79413333-4.64213333 11.40053333-7.97013333 23.38133333-11.264 35.34506667-1.36533333 4.93226667-3.03786667 7.50933333-8.36266667 6.656-2.9696-0.47786667-6.144-0.08533333-9.89866666-0.08533333 0.78506667-20.48 1.46773333-40.36266667 2.23573333-61.98613334-4.72746667 2.38933333-8.31146667 3.584-11.02506667 5.75146667-6.4 5.18826667-12.4928 10.71786667-18.26133333 16.5888-10.3424 10.8544-20.3776 22.13546667-30.4128 33.36533333-6.31466667 7.04853333-8.53333333 7.7824-19.4048 5.18826667a15941.85386667 15941.85386667 0 0 1 38.77546667-67.41333333c-12.62933333-3.7376-23.62026667-8.87466667-28.34773334-22.2208-2.8672-8.1408-2.59413333-17.06666667 0.75093334-25.01973334 0.768 2.9184 1.3824 5.90506667 2.21866666 8.78933334 4.26666667 14.93333333 17.03253333 22.6816 31.40266667 18.21013333 4.06186667-1.4336 7.50933333-4.1472 9.8816-7.7312 12.61226667-20.95786667 24.7808-42.24 36.8128-63.488 2.21866667-3.92533333 4.4032-4.608 8.51626667-3.92533333 19.7632 3.20853333 39.59466667 6.26346667 59.52853333 0.85333333 4.33493333-1.14346667 8.53333333-3.03786667 13.17546667-4.72746667 0.0512 55.58613333 0.0512 111.104 0.0512 167.59466667z" fill="#ff5150" p-id="5217"></path></svg>
