<svg xmlns="http://www.w3.org/2000/svg" xmlns:xlink="http://www.w3.org/1999/xlink" fill="none" version="1.1" width="21.2998046875" height="19.300048828125" viewBox="0 0 21.2998046875 19.300048828125"><g><g><g><ellipse cx="10.856799125671387" cy="6.059473514556885" rx="5.742946624755859" ry="5.409449100494385" fill="#2F2F30" fill-opacity="1"/><ellipse cx="10.856799125671387" cy="6.059473514556885" rx="5.742946624755859" ry="5.409449100494385" fill-opacity="0" stroke-opacity="1" stroke="#2F2F30" fill="none" stroke-width="1.2999999523162842"/></g><g><path d="M20.64990234375,18.650019863586426L0.64990234375,18.650019863586426Q0.64990234375,13.181519863586425,5.90382234375,13.429551363586425L15.40850234375,13.429551363586425Q20.64990234375,13.181519863586425,20.64990234375,18.650019863586426L0.64990234375,18.650019863586426" fill="#2F2F30" fill-opacity="1"/><path d="M15.39340234375,12.779551863586425L5.91891234375,12.779551863586425Q3.01763234375,12.646792863586425,1.50523234375,14.149568863586426Q-0.0000976562500000222,15.645319863586426,-0.0000976562500000222,18.650019863586426L-0.0000976562500000222,19.300019863586428L21.29990234375,19.300019863586428L21.29990234375,18.650019863586426Q21.29990234375,15.645769863586427,19.79830234375,14.150116863586426Q18.28890234375,12.646758863586426,15.39340234375,12.779551863586425ZM19.97890234375,18.000019863586424Q19.84660234375,16.033039863586424,18.88090234375,15.071189863586426Q17.77360234375,13.968358863586426,15.43920234375,14.078824863586426L15.42390234375,14.079550863586427L5.88848234375,14.079550863586427L5.87317234375,14.078828863586425Q3.53203234375,13.968305863586426,2.42153234375,15.071739863586426Q1.4536263437499999,16.033479863586425,1.32097034375,18.000019863586424L19.97890234375,18.000019863586424Z" fill-rule="evenodd" fill="#2F2F30" fill-opacity="1"/></g></g><g><path d="M12.98257234375,8.6297344140625Q13.958342343750001,7.9808544140625,14.51094234375,6.8222184140625L13.78886234375,6.4778304140625Q13.331372343750001,7.4370464140625,12.53959234375,7.9635744140625Q11.79988234375,8.4554744140625,10.939342343749999,8.4637144140625Q10.07365234375,8.4720044140625,9.31994234375,7.9874344140625Q8.50331234375,7.4624184140625,8.00767234375,6.4711384140625L7.29213134375,6.8289104140625Q7.88597434375,8.0165944140625,8.88731234375,8.6603644140625Q9.84218234375,9.2742544140625,10.94700234375,9.2636744140625Q12.04507234375,9.2531544140625,12.98257234375,8.6297344140625Z" fill-rule="evenodd" fill="#E56A17" fill-opacity="1"/></g></g></svg>