<svg xmlns="http://www.w3.org/2000/svg" xmlns:xlink="http://www.w3.org/1999/xlink" fill="none" version="1.1" width="15" height="18.000244140625" viewBox="0 0 15 18.000244140625"><g><g><path d="M0.5,15.5L1,17L2,17.5L13,17.5L14,16.5L14.5,15.5L14.5,5L11.5,5L10.5,5L10,4L10,2.5L10,0.5L2,0.5Q1,0.5,0.5,2L0.5,15.5Z" fill="#2F2F30" fill-opacity="1"/></g><g><g><g><path d="M12.6911,18.0002L2.30743,18.0002C1.03418,18.0002,0,16.9925,0,15.7507L0,2.25339C0,1.01016,1.03319,0.00288342,2.30743,0.00288342L9.22971,0.00288342C10.0036,-0.00816969,10.3107,0.0187422,10.3842,0.0187422L10.3842,0.00288342L15,4.50294L15,15.7516C15,16.9929,13.9663,18.0002,12.6911,18.0002ZM10.3842,1.1279L10.3842,3.37744C10.3842,4.00026,10.8998,4.50294,11.5386,4.50294L13.846,4.50294L10.3842,1.1279ZM13.8455,5.62795L11.5381,5.62795C10.2629,5.62795,9.22921,4.62068,9.22921,3.37696Q9.20408,2.47445,9.21295,1.12742L2.30743,1.12742C1.67056,1.12742,1.15445,1.63009,1.15445,2.25291L1.15445,15.7512C1.15445,16.3716,1.67006,16.8766,2.30743,16.8766L12.6916,16.8766C13.3304,16.8766,13.846,16.3721,13.846,15.7512L13.846,5.62795L13.8455,5.62795Z" fill="#2F2F30" fill-opacity="1"/></g></g><g><rect x="4" y="9.473684310913086" width="7" height="0.9473684430122375" rx="0.4736842215061188" fill="#E56A17" fill-opacity="1"/></g><g><rect x="4" y="12.315790176391602" width="7" height="0.9473684430122375" rx="0.4736842215061188" fill="#E56A17" fill-opacity="1"/></g></g></g></svg>