<svg xmlns="http://www.w3.org/2000/svg" xmlns:xlink="http://www.w3.org/1999/xlink" fill="none" version="1.1" width="375" height="94.99993896484375" viewBox="0 0 375 94.99993896484375"><defs><clipPath id="master_svg0_234_3436"><rect x="167" y="9" width="44" height="40" rx="0"/></clipPath></defs><g><g><g><path d="M0,23.46664490625L0,95.00000390625L375,95.00000390625L375,23.46664490625L235.217,23.46664490625L231.203,23.46664490625Q220.877,21.75427390625,218.296,33.483403906250004C215.715,45.21250390625,204.24,57.08320390625,188.61,56.65830390625C172.98,56.23340390625,161.931,48.36680390625,156.626,33.76660390625Q154.768,23.72414290625,144.003,23.37652090625Q133.252,23.04177090625,0,23.46664490625Z" fill="#FFFFFF" fill-opacity="1"/></g><g><ellipse cx="188.17005348205566" cy="26.53530502319336" rx="26.601327896118164" ry="26.53530502319336" fill="#FFFFFF" fill-opacity="1"/></g></g><g><g clip-path="url(#master_svg0_234_3436)"><g><g><path d="M200.902346875,16.40347741333008C204.173246875,26.20126741333008,202.488246875,26.85536741333008,198.054446875,23.500467413330078C194.498026875,20.81004741333008,203.569246875,43.31626741333008,190.623046875,48.86236741333008C196.536486875,48.21686741333008,202.187046875,45.28896741333008,206.105546875,40.26266741333008C211.764846875,33.00556741333008,212.642146875,23.171667413330077,208.074346875,15.842327413330079C204.564946875,10.213611413330078,198.103186875,8.017207413330079,200.902346875,16.40347741333008Z" fill="#6CDCFF" fill-opacity="1"/></g><g><path d="M208.0755,15.843934307861328C208.2461,16.11934430786133,208.4097,16.398194307861328,208.5664,16.680494307861327C208.4202,17.468854307861328,208.3801,18.49304430786133,208.4811,19.792634307861327C209.2784,30.08098430786133,207.4836,30.315084307861326,203.9934,26.006584307861328C201.1942,22.55188430786133,204.53820000000002,46.550484307861325,190.6242,48.86568430786133C184.9945,49.48018430786133,179.1245,48.023984307861326,174.28517,44.333484307861326C170.89413,41.74458430786133,168.44659,38.39668430786133,167,34.71818430786133C173.04748,43.74138430786133,188.4708,42.74818430786133,190.3874,35.065884307861324C191.9576,28.777884307861328,196.2852,30.61108430786133,197.8762,35.21218430786133C198.0172,28.34588430786133,196.0693,21.997684307861327,198.0538,23.49868430786133C202.4876,26.85348430786133,204.1727,26.19938430786133,200.9017,16.40164430786133C198.1043,8.017104307861327,204.5661,10.213502307861328,208.0755,15.843934307861328ZM197.8728,35.40158430786133C197.8745,35.34298430786133,197.8762,35.28448430786133,197.8762,35.225984307861324C197.8762,35.28448430786133,197.8745,35.34298430786133,197.8728,35.40158430786133Z" fill="#07A8EF" fill-opacity="1"/></g><g><path d="M197.8777954725,35.22603225708008C197.8777954725,35.25873775708008,197.8759765625,35.29144315708008,197.8759765625,35.32414865708008Q197.8777954725,35.26045805708008,197.8777954725,35.22603225708008Z" fill="#036EB7" fill-opacity="1"/></g></g><g><path d="M170.6492703125,29.6662039453125C173.7252303125,32.3549039453125,174.1238703125,37.4758239453125,181.5152703125,39.6309439453125C181.4264703125,39.6326439453125,181.3376703125,39.6326439453125,181.2488703125,39.6309439453125C176.3729603125,39.5827439453125,172.6825003125,37.8166439453125,169.8311003125,35.1950739453125C165.7211203125,31.4202239453125,166.9031073125,26.390533945312498,170.6492703125,29.6662039453125Z" fill="#6CDCFF" fill-opacity="1"/></g><g transform="matrix(0.9738078117370605,-0.22737255692481995,0.23226754367351532,0.9726519584655762,-0.5643730453284661,43.7343614588608)"><ellipse cx="192.00519347190857" cy="26.293081283569336" rx="2.5208184719085693" ry="2.495595932006836" fill="#6CDCFF" fill-opacity="1"/></g><g transform="matrix(0.9738078713417053,-0.22737255692481995,0.23226751387119293,0.9726519584655762,-2.685907045413842,42.989413577190135)"><ellipse cx="186.73021507263184" cy="33.9913170337677" rx="1.562246322631836" ry="1.5466148853302002" fill="#07A8EF" fill-opacity="1"/></g><g><ellipse cx="197.2683001756668" cy="16.398221969604492" rx="1.563222050666809" ry="1.5457439422607422" fill="#07A8EF" fill-opacity="1"/></g><g transform="matrix(0.9738078713417053,-0.22737257182598114,0.23226749897003174,0.9726519584655762,2.537680379122321,42.15651829019771)"><ellipse cx="187.5698299407959" cy="13.162254810333252" rx="3.3471736907958984" ry="3.313683032989502" fill="#07A8EF" fill-opacity="1"/></g></g></g></g></svg>